Coordinates
version=1
nRows=33
nColumns=30
inDegrees=yes

Units are S.I. units (second, meters, Newtons, ...)
Angles are in degrees.

endheader
time	floatyaw	floatroll	floatpitch	floatx	floaty	floatz	pro_sup_l	deviation_l	flexion_l	cmc_flexion_l	cmc_abduction_l	mp_flexion_l	ip_flexion_l	2mcp_flexion_l	2mcp_abduction_l	2pm_flexion_l	2md_flexion_l	3mcp_flexion_l	3mcp_abduction_l	3pm_flexion_l	3md_flexion_l	4mcp_flexion_l	4mcp_abduction_l	4pm_flexion_l	4md_flexion_l	5mcp_flexion_l	5mcp_abduction_l	5pm_flexion_l	5md_flexion_l
-0.995000	-160.147433	-5.066637	-73.570646	0.078859	-0.182220	-0.013324	100.293226	4.233047	-0.434840	13.770049	8.230850	-26.103726	-41.970916	31.744266	6.474198	42.544409	28.824153	24.834989	4.207564	44.230531	29.300939	13.435018	-4.295711	52.688783	36.319419	1.166578	-7.566615	62.579075	43.299396
-0.985000	-160.147433	-5.066637	-73.570646	0.078861	-0.182216	-0.013324	100.297347	4.236135	-0.432107	13.754729	8.229877	-26.093607	-41.942654	31.747465	6.477594	42.560855	28.839170	24.833650	4.210575	44.232875	29.303060	13.430340	-4.293178	52.696020	36.323266	1.156022	-7.569690	62.595195	43.303454
-0.975000	-160.147433	-5.066637	-73.570646	0.078864	-0.182211	-0.013324	100.294650	4.234802	-0.426025	13.740990	8.227108	-26.088376	-41.921563	31.749599	6.481489	42.568686	28.848313	24.838095	4.211423	44.223984	29.298871	13.417508	-4.289207	52.704368	36.328209	1.140157	-7.575723	62.612121	43.309318
-0.965000	-160.147433	-5.066637	-73.570646	0.078870	-0.182204	-0.013324	100.289805	4.231896	-0.416803	13.729418	8.223399	-26.086555	-41.907955	31.751614	6.486095	42.567625	28.850295	24.846208	4.209716	44.210096	29.291208	13.401162	-4.283883	52.711142	36.331370	1.124781	-7.582786	62.627080	43.314732
-0.955000	-160.147433	-5.066637	-73.570646	0.078878	-0.182194	-0.013322	100.286509	4.230121	-0.405418	13.719322	8.222699	-26.085914	-41.898919	31.754924	6.490767	42.559337	28.845772	24.853882	4.206090	44.198181	29.283960	13.387247	-4.277801	52.712633	36.329881	1.116036	-7.588369	62.636254	43.316335
-0.945000	-160.147433	-5.066637	-73.570646	0.078887	-0.182180	-0.013317	100.285498	4.230655	-0.393366	13.709602	8.229587	-26.084931	-41.890410	31.760754	6.494396	42.546313	28.836914	24.857174	4.201676	44.192899	29.280304	13.379844	-4.271906	52.706161	36.322477	1.116900	-7.590303	62.636800	43.311439
-0.935000	-160.147433	-5.066637	-73.570646	0.078896	-0.182167	-0.013310	100.284738	4.232881	-0.382414	13.700054	8.245746	-26.084079	-41.880657	31.770048	6.496134	42.530567	28.826079	24.854558	4.197480	44.194642	29.280943	13.379200	-4.267203	52.692199	36.310429	1.125615	-7.587708	62.628674	43.299579
-0.925000	-160.147433	-5.066637	-73.570646	0.078904	-0.182156	-0.013302	100.281192	4.235131	-0.374224	13.691875	8.268166	-26.085886	-41.872289	31.783579	6.495993	42.512810	28.814491	24.847824	4.194042	44.199763	29.283633	13.382075	-4.264435	52.674902	36.297139	1.137009	-7.581521	62.614998	43.282897
-0.915000	-160.147433	-5.066637	-73.570646	0.078911	-0.182151	-0.013296	100.272844	4.235849	-0.369800	13.686880	8.290383	-26.093348	-41.871007	31.801588	6.494936	42.492770	28.802119	24.841063	4.191499	44.202845	29.284545	13.384052	-4.263751	52.660224	36.286500	1.145707	-7.574275	62.600730	43.265217
-0.905000	-160.147433	-5.066637	-73.570646	0.078915	-0.182152	-0.013294	100.259885	4.234489	-0.368983	13.685984	8.305839	-26.107497	-41.881227	31.822855	6.494420	42.470581	28.788986	24.838310	4.189879	44.199751	29.280786	13.382214	-4.264560	52.652691	36.280991	1.148956	-7.569036	62.590460	43.250471
-0.895000	-160.147433	-5.066637	-73.570646	0.078916	-0.182156	-0.013296	100.244591	4.231708	-0.370346	13.688193	8.311234	-26.125887	-41.901785	31.844119	6.495661	42.448103	28.776734	24.841225	4.189344	44.189905	29.272545	13.376542	-4.265739	52.653052	36.280736	1.147375	-7.567869	62.586460	43.241319
-0.885000	-160.147433	-5.066637	-73.570646	0.078916	-0.182160	-0.013302	100.230137	4.228794	-0.371755	13.690915	8.307974	-26.143362	-41.925261	31.861018	6.499071	42.428896	28.768824	24.848182	4.190147	44.176784	29.263476	13.369478	-4.266224	52.658356	36.283990	1.143625	-7.570668	62.587858	43.238432
-0.875000	-160.147433	-5.066637	-73.570646	0.078916	-0.182161	-0.013309	100.219129	4.226697	-0.371399	13.691407	8.300952	-26.154904	-41.941842	31.870344	6.504123	42.416686	28.768875	24.855248	4.192354	44.166490	29.258998	13.364328	-4.265659	52.664106	36.288424	1.140415	-7.575121	62.591231	43.240534
-0.865000	-160.147433	-5.066637	-73.570646	0.078917	-0.182157	-0.013318	100.212711	4.225322	-0.368715	13.688299	8.295485	-26.158666	-41.945191	31.871987	6.509696	42.413513	28.778332	24.858374	4.195602	44.164988	29.263365	13.363588	-4.264633	52.666853	36.292227	1.139207	-7.577981	62.592451	43.245092
-0.855000	-160.147433	-5.066637	-73.570646	0.078921	-0.182149	-0.013328	100.210563	4.223626	-0.364582	13.682145	8.294360	-26.157089	-41.936360	31.869006	6.514595	42.418941	28.795171	24.855486	4.199127	44.175138	29.277150	13.367918	-4.264289	52.665699	36.294528	1.140059	-7.577029	62.589075	43.249517
-0.845000	-160.147433	-5.066637	-73.570646	0.078924	-0.182140	-0.013340	100.211459	4.220461	-0.360664	13.674716	8.296933	-26.155468	-41.923387	31.865819	6.517932	42.430724	28.814557	24.847351	4.202082	44.195000	29.296606	13.375899	-4.265568	52.662260	36.295356	1.142190	-7.572660	62.582189	43.252501
-0.835000	-160.147433	-5.066637	-73.570646	0.078927	-0.182132	-0.013354	100.213809	4.215462	-0.358396	13.667617	8.300748	-26.159127	-41.917144	31.865928	6.519266	42.446180	28.830979	24.836945	4.203936	44.218608	29.315446	13.384515	-4.268588	52.659651	36.295504	1.144658	-7.568187	62.576676	43.254875
-0.825000	-160.147433	-5.066637	-73.570646	0.078926	-0.182128	-0.013369	100.215904	4.209228	-0.358315	13.661142	8.304084	-26.170864	-41.926028	31.870675	6.518668	42.463176	28.840533	24.827881	4.204690	44.239029	29.328058	13.390205	-4.272557	52.661208	36.296401	1.146690	-7.568469	62.579422	43.259327
-0.815000	-160.147433	-5.066637	-73.570646	0.078921	-0.182127	-0.013382	100.216094	4.202733	-0.360016	13.653982	8.307001	-26.189670	-41.952032	31.879435	6.516772	42.480239	28.842165	24.822768	4.204822	44.251856	29.332197	13.390232	-4.276242	52.669372	36.299742	1.147498	-7.577277	62.595954	43.268850
-0.805000	-160.147433	-5.066637	-73.570646	0.078912	-0.182130	-0.013392	100.213188	4.196634	-0.362511	13.643792	8.309974	-26.210853	-41.989531	31.890504	6.514689	42.496161	28.837571	24.822197	4.205003	44.256986	29.329634	13.383812	-4.278621	52.684757	36.306742	1.145958	-7.594684	62.627074	43.284664
-0.795000	-160.147433	-5.066637	-73.570646	0.078901	-0.182135	-0.013398	100.207016	4.191074	-0.364598	13.628250	8.311593	-26.227443	-42.027095	31.901802	6.513688	42.509644	28.830059	24.824688	4.205730	44.257812	29.324638	13.372402	-4.279296	52.705567	36.317288	1.140728	-7.616144	62.667470	43.304939
-0.785000	-160.147433	-5.066637	-73.570646	0.078893	-0.182141	-0.013400	100.198608	4.185925	-0.365153	13.606172	8.307786	-26.232679	-42.051894	31.911342	6.514778	42.519109	28.822871	24.827579	4.207060	44.258680	29.321433	13.358981	-4.278478	52.727789	36.329598	1.131068	-7.634267	62.707486	43.325228
-0.775000	-160.147433	-5.066637	-73.570646	0.078888	-0.182144	-0.013399	100.189643	4.180989	-0.363361	13.578318	8.293736	-26.222835	-42.055132	31.917813	6.518436	42.522571	28.817559	24.828394	4.208545	44.262415	29.322137	13.346655	-4.276684	52.746501	36.340807	1.117778	-7.642510	62.737289	43.340420
-0.765000	-160.147433	-5.066637	-73.570646	0.078888	-0.182146	-0.013397	100.181492	4.175972	-0.358949	13.547544	8.267510	-26.199060	-42.035851	31.921174	6.524601	42.517866	28.813291	24.825912	4.209433	44.269489	29.326299	13.337321	-4.274425	52.757980	36.348320	1.103480	-7.638627	62.751102	43.347007
-0.755000	-160.147433	-5.066637	-73.570646	0.078893	-0.182144	-0.013396	100.174579	4.170483	-0.352347	13.518119	8.233047	-26.167186	-42.000949	31.922727	6.532812	42.503611	28.807710	24.820360	4.209032	44.279096	29.332078	13.331050	-4.272076	52.761561	36.351209	1.091885	-7.625773	62.749242	43.344480
-0.745000	-160.147433	-5.066637	-73.570646	0.078900	-0.182141	-0.013396	100.168464	4.164266	-0.344685	13.494410	8.200258	-26.135566	-41.961584	31.924522	6.542286	42.480650	28.798898	24.812914	4.207092	44.290832	29.338029	13.326452	-4.269910	52.760081	36.350788	1.086398	-7.610733	62.737168	43.335280
-0.735000	-160.147433	-5.066637	-73.570646	0.078906	-0.182136	-0.013398	100.162466	4.157521	-0.337552	13.479427	8.181354	-26.111951	-41.928232	31.928496	6.551903	42.452923	28.787114	24.805136	4.204019	44.305304	29.344027	13.321687	-4.268129	52.758494	36.349941	1.088719	-7.600450	62.722461	43.323547
-0.725000	-160.147433	-5.066637	-73.570646	0.078910	-0.182132	-0.013400	100.156406	4.151080	-0.332487	13.473799	8.184836	-26.100728	-41.906898	31.935669	6.560260	42.426896	28.775197	24.798663	4.200728	44.323196	29.350774	13.315452	-4.266815	52.761357	36.351566	1.098036	-7.598797	62.711458	43.313391
-0.715000	-160.147433	-5.066637	-73.570646	0.078909	-0.182129	-0.013402	100.151117	4.146331	-0.330362	13.475563	8.210605	-26.101620	-41.897778	31.945554	6.565976	42.409662	28.767549	24.794902	4.198183	44.343931	29.358647	13.307438	-4.265850	52.770576	36.357047	1.111139	-7.605176	62.707051	43.307505
-0.705000	-160.147433	-5.066637	-73.570646	0.078906	-0.182127	-0.013403	100.148347	4.144862	-0.330926	13.480839	8.249632	-26.110323	-41.896327	31.956122	6.568164	42.406523	28.768345	24.794470	4.196906	44.365397	29.367082	13.298207	-4.264925	52.784643	36.365610	1.123476	-7.615392	62.708491	43.306679
-0.695000	-160.147433	-5.066637	-73.570646	0.078902	-0.182126	-0.013401	100.149730	4.147692	-0.332886	13.485039	8.288800	-26.120718	-41.895970	31.964836	6.566778	42.418956	28.779636	24.796695	4.196782	44.384933	29.374873	13.288902	-4.263730	52.799581	36.374762	1.130717	-7.624087	62.713054	43.310218
-0.685000	-160.147433	-5.066637	-73.570646	0.078899	-0.182124	-0.013399	100.155140	4.154268	-0.334566	13.484080	8.317625	-26.127564	-41.891390	31.970465	6.562602	42.443647	28.799941	24.799855	4.197310	44.400427	29.380751	13.281094	-4.262220	52.810768	36.381410	1.130066	-7.627356	62.718545	43.316804
-0.675000	-160.147433	-5.066637	-73.570646	0.078897	-0.182121	-0.013397	100.161728	4.161994	-0.334801	13.475325	8.332235	-26.128402	-41.880997	31.974366	6.556922	42.473258	28.824124	24.802198	4.198075	44.410517	29.383602	13.276709	-4.260729	52.814566	36.383005	1.120838	-7.624361	62.725201	43.325278
